<?xml version="1.0" encoding="UTF-8"?>
<svg width="306px" height="76px" viewBox="0 0 306 76" version="1.1" xmlns="http://www.w3.org/2000/svg" xmlns:xlink="http://www.w3.org/1999/xlink">
    <g id="logo" transform="translate(0.000000, 1.000000)">
        <path d="M45.5270731,33.825 C45.5270731,32.520448 44.9427885,31.5886392 43.7742017,31.0295455 L33.1630695,25.9666667 C30.387676,24.6414075 29,22.4775403 29,19.475 C29,17.1143821 29.9807635,15.2921781 31.9423198,14.0083333 C33.6325971,12.8901459 35.7401952,12.3310606 38.2651773,12.3310606 C41.3327176,12.3310606 44.0767686,13.0868611 46.4974126,14.5984848 C47.2277793,15.0540427 47.5929572,15.6545417 47.5929572,16.4 C47.5929572,16.9590937 47.389501,17.4405283 46.9825824,17.8443182 C46.5756637,18.2481081 46.0904988,18.45 45.5270731,18.45 C45.1514559,18.45 44.8280126,18.3671725 44.5567336,18.2015152 C42.5743096,17.0212062 40.4771451,16.4310606 38.2651773,16.4310606 C34.8428875,16.4310606 33.1317683,17.4456969 33.1317683,19.475 C33.1317683,20.7588448 33.6951856,21.6699468 34.8220371,22.2083333 L45.5270731,27.3333333 C48.281599,28.6585925 49.6588413,30.8224597 49.6588413,33.825 C49.6588413,36.3098609 48.6676442,38.1734786 46.6852202,39.4159091 C44.994943,40.471975 42.8143093,41 40.1432538,41 C36.1784059,41 32.8500703,40.2441995 30.1581472,38.7325758 C29.3860452,38.2977251 29,37.6868726 29,36.9 C29,36.3409063 29.2034563,35.8594717 29.6103749,35.4556818 C30.0172935,35.0518919 30.5024584,34.85 31.0658841,34.85 C31.3371632,34.85 31.5980046,34.9017672 31.848416,35.005303 C32.5161799,35.2952035 33.4969433,35.6782804 34.7907358,36.1545455 C36.6688217,36.6515176 38.4947111,36.9 40.2684589,36.9 C43.7742192,36.9 45.5270731,35.8750103 45.5270731,33.825 Z M62.0541462,20.5 L62.0541462,32.8 C62.0541462,33.9181874 62.4610587,34.8810566 63.2748959,35.6886364 C64.0887331,36.4962162 65.0590629,36.9 66.1859144,36.9 L72.3835668,36.9 C73.7608298,36.9 74.449451,37.5833265 74.449451,38.95 C74.449451,40.3166735 73.7608298,41 72.3835668,41 L66.1859144,41 C63.8696085,41 61.9132984,40.2079625 60.3169254,38.6238636 C58.7205524,37.0397648 57.9223779,35.0984963 57.9223779,32.8 L57.9223779,20.5 C57.9223779,18.2015037 58.7205524,16.2602352 60.3169254,14.6761364 C61.9132984,13.0920375 63.8696085,12.3 66.1859144,12.3 L72.3835668,12.3 C73.7608298,12.3 74.449451,12.9833265 74.449451,14.35 C74.449451,15.7166735 73.7608298,16.4 72.3835668,16.4 L66.1859144,16.4 C65.0381953,16.4 64.0626486,16.7986071 63.2592452,17.5958333 C62.4558418,18.3930595 62.0541462,19.3611054 62.0541462,20.5 Z M82.7129875,2.05 C82.7129875,0.6833265 83.4016087,0 84.7788716,0 C86.1561346,0 86.8447558,0.6833265 86.8447558,2.05 L86.8447558,12.3 L95.1082923,12.3 C97.382863,12.3 99.3287394,13.0868608 100.94598,14.6606061 C102.563221,16.2343513 103.371829,18.1290293 103.371829,20.344697 L103.371829,38.95 C103.371829,40.3166735 102.683208,41 101.305945,41 C99.9286817,41 99.2400606,40.3166735 99.2400606,38.95 L99.2400606,20.5 C99.2400606,19.3403982 98.8435817,18.3671757 98.0506121,17.580303 C97.2576425,16.7934304 96.2768791,16.4 95.1082923,16.4 L86.8447558,16.4 L86.8447558,38.95 C86.8447558,40.3166735 86.1561346,41 84.7788716,41 C83.4016087,41 82.7129875,40.3166735 82.7129875,38.95 L82.7129875,2.05 Z M121.964786,16.4 C120.253641,16.4 118.79293,17.000499 117.582608,18.2015152 C116.372286,19.4025313 115.767134,20.8520117 115.767134,22.55 L115.767134,24.6 L128.162438,24.6 L128.162438,22.55 C128.162438,20.8520117 127.557287,19.4025313 126.346965,18.2015152 C125.136643,17.000499 123.675931,16.4 121.964786,16.4 Z M115.767134,28.7 L115.767134,32.8 C115.767134,33.9181874 116.174046,34.8810566 116.987883,35.6886364 C117.801721,36.4962162 118.77205,36.9 119.898902,36.9 L130.228323,36.9 C131.605586,36.9 132.294207,37.5833265 132.294207,38.95 C132.294207,40.3166735 131.605586,41 130.228323,41 L119.898902,41 C117.582596,41 115.626286,40.2079625 114.029913,38.6238636 C112.43354,37.0397648 111.635365,35.0984963 111.635365,32.8 L111.635365,22.55 C111.635365,19.7131171 112.642213,17.2955908 114.655938,15.2973485 C116.669664,13.2991062 119.105922,12.3 121.964786,12.3 C124.865385,12.3 127.312077,13.2887527 129.304935,15.2662879 C131.297793,17.243823 132.294207,19.6717028 132.294207,22.55 L132.294207,28.7 L115.767134,28.7 Z M142.623627,12.3 L161.216585,12.3 C163.532891,12.3 165.489201,13.0920375 167.085574,14.6761364 C168.681947,16.2602352 169.480121,18.2015037 169.480121,20.5 L169.480121,38.95 C169.480121,40.3166735 168.7915,41 167.414237,41 C166.036974,41 165.348353,40.3166735 165.348353,38.95 L165.348353,20.5 C165.348353,19.3403982 164.951874,18.3671757 164.158904,17.580303 C163.365935,16.7934304 162.385171,16.4 161.216585,16.4 L157.084816,16.4 L157.084816,38.95 C157.084816,40.3166735 156.396195,41 155.018932,41 C153.641669,41 152.953048,40.3166735 152.953048,38.95 L152.953048,16.4 L144.689512,16.4 L144.689512,38.95 C144.689512,40.3166735 144.00089,41 142.623627,41 C141.246364,41 140.557743,40.3166735 140.557743,38.95 L140.557743,14.35 C140.557743,12.9833265 141.246364,12.3 142.623627,12.3 Z M186.007194,41 C183.690888,41 181.734578,40.2079625 180.138205,38.6238636 C178.541832,37.0397648 177.743658,35.0984963 177.743658,32.8 C177.743658,31.3090835 178.108836,29.932077 178.839202,28.6689394 C180.404274,25.9562996 182.793581,24.6 186.007194,24.6 L194.270731,24.6 L194.270731,20.5 C194.270731,19.3403982 193.874252,18.3671757 193.081282,17.580303 C192.288313,16.7934304 191.307549,16.4 190.138963,16.4 L181.875426,16.4 C180.498163,16.4 179.809542,15.7166735 179.809542,14.35 C179.809542,12.9833265 180.498163,12.3 181.875426,12.3 L190.138963,12.3 C192.455268,12.3 194.411579,13.0920375 196.007952,14.6761364 C197.604325,16.2602352 198.402499,18.2015037 198.402499,20.5 L198.402499,38.95 C198.402499,40.3166735 197.713878,41 196.336615,41 L186.007194,41 Z M194.270731,28.7 L186.007194,28.7 C184.859475,28.7 183.883928,29.0986071 183.080525,29.8958333 C182.277122,30.6930595 181.875426,31.6611054 181.875426,32.8 C181.875426,33.9181874 182.282338,34.8810566 183.096176,35.6886364 C183.910013,36.4962162 184.880343,36.9 186.007194,36.9 L194.270731,36.9 L194.270731,28.7 Z M241.87997,32.4272727 L248.140225,13.6977273 C248.453239,12.7659044 249.110559,12.3 250.112205,12.3 C251.510336,12.3 252.20939,12.9729731 252.20939,14.3189394 C252.20939,14.5260111 252.167656,14.7537866 252.084185,15.0022727 L243.945854,39.2916667 C243.570237,40.4305613 242.881616,41 241.87997,41 C240.878324,41 240.189703,40.4409147 239.814086,39.3227273 L231.675754,15.0022727 C231.592284,14.7537866 231.550549,14.5260111 231.550549,14.3189394 C231.550549,13.7598457 231.754005,13.2835878 232.160924,12.8901515 C232.567842,12.4967152 233.053007,12.3 233.616433,12.3 C234.618079,12.3 235.275399,12.7659044 235.588413,13.6977273 L241.87997,32.4272727 Z M264.604695,20.5 L264.604695,32.8 C264.604695,33.9181874 265.011608,34.8810566 265.825445,35.6886364 C266.639282,36.4962162 267.609612,36.9 268.736463,36.9 L274.934116,36.9 C276.311379,36.9 277,37.5833265 277,38.95 C277,40.3166735 276.311379,41 274.934116,41 L268.736463,41 C266.420158,41 264.463847,40.2079625 262.867474,38.6238636 C261.271101,37.0397648 260.472927,35.0984963 260.472927,32.8 L260.472927,20.5 C260.472927,18.2015037 261.271101,16.2602352 262.867474,14.6761364 C264.463847,13.0920375 266.420158,12.3 268.736463,12.3 L274.934116,12.3 C276.311379,12.3 277,12.9833265 277,14.35 C277,15.7166735 276.311379,16.4 274.934116,16.4 L268.736463,16.4 C267.588744,16.4 266.613198,16.7986071 265.809794,17.5958333 C265.006391,18.3930595 264.604695,19.3611054 264.604695,20.5 Z" id="schema.vc" stroke="#000000" fill="#000000"></path>
        <g id="Group" transform="translate(199.500000, 40.000000)" stroke="#000000" stroke-linecap="square" stroke-width="4">
            <path d="M0,15 L32.5948751,15" id="Line"></path>
            <path d="M5,24 L28.7053637,24" id="Line"></path>
            <path d="M10,33 L23.8281288,33" id="Line"></path>
            <path d="M17,0.5 L17,14.5356688" id="Line"></path>
        </g>
        <g id="Group-3" transform="translate(208.500000, 20.000000)">
            <path d="M0.8,7.46666667 C0.8,2.488864 3.199976,0 8,0 C12.800024,0 15.2,2.488864 15.2,7.46666667 L15.2,14.9333333 C15.2,19.911136 12.800024,22.4 8,22.4 C3.199976,22.4 0.8,19.911136 0.8,14.9333333 L0.8,7.46666667 Z" id="dot" fill="#FF0000"></path>
            <path d="M4.8,9.6 C4.8,7.466656 5.866656,6.4 8,6.4 C10.133344,6.4 11.2,7.466656 11.2,9.6 L11.2,12.8 C11.2,14.933344 10.133344,16 8,16 C5.866656,16 4.8,14.933344 4.8,12.8 L4.8,9.6 Z" id="." fill="#FFFFFF"></path>
        </g>
        <path d="M8.375,43.9375 C8.375,45.0000053 9.06249312,45.6874984 10.4375,46 C11.8125069,46.3125016 12.5,46.9999947 12.5,48.0625 C12.5,49.4375069 11.8125069,50.125 10.4375,50.125 C8.70832469,50.125 7.24479766,49.5260477 6.046875,48.328125 C4.84895234,47.1302023 4.25,45.6666753 4.25,43.9375 L4.25,29.5 C4.25,28.4374947 3.56250688,27.7500016 2.1875,27.4375 C0.812493125,27.1249984 0.125,26.4375053 0.125,25.375 C0.125,24.3124947 0.812493125,23.6250016 2.1875,23.3125 C3.56250688,22.9999984 4.25,22.3125053 4.25,21.25 L4.25,6.8125 C4.25,5.08332469 4.85416063,3.61979766 6.0625,2.421875 C7.27083937,1.22395234 8.72915812,0.625 10.4375,0.625 C11.8125069,0.625 12.5,1.31249313 12.5,2.6875 C12.5,3.75000531 11.8125069,4.43749844 10.4375,4.75 C9.06249312,5.06250156 8.375,5.74999469 8.375,6.8125 L8.375,21.25 C8.375,23.5208447 7.68750688,24.8958309 6.3125,25.375 C6.93750312,25.5625009 7.45833125,26.1458284 7.875,27.125 C8.208335,27.9583375 8.375,28.7499963 8.375,29.5 L8.375,43.9375 Z M297.125,6.8125 C297.125,5.74999469 296.437507,5.06250156 295.0625,4.75 C293.687493,4.43749844 293,3.75000531 293,2.6875 C293,1.31249313 293.687493,0.625 295.0625,0.625 C296.791675,0.625 298.255202,1.22395234 299.453125,2.421875 C300.651048,3.61979766 301.25,5.08332469 301.25,6.8125 L301.25,21.25 C301.25,22.3125053 301.937493,22.9999984 303.3125,23.3125 C304.687507,23.6250016 305.375,24.3124947 305.375,25.375 C305.375,26.4375053 304.687507,27.1249984 303.3125,27.4375 C301.937493,27.7500016 301.25,28.4374947 301.25,29.5 L301.25,43.9375 C301.25,45.6666753 300.645839,47.1302023 299.4375,48.328125 C298.229161,49.5260477 296.770842,50.125 295.0625,50.125 C293.687493,50.125 293,49.4375069 293,48.0625 C293,46.9999947 293.687493,46.3125016 295.0625,46 C296.437507,45.6874984 297.125,45.0000053 297.125,43.9375 L297.125,29.5 C297.125,27.2291553 297.812493,25.8541691 299.1875,25.375 C298.562497,25.1874991 298.041669,24.6041716 297.625,23.625 C297.291665,22.7916625 297.125,22.0000038 297.125,21.25 L297.125,6.8125 Z" id="{-}" fill="#000000" opacity="0.2"></path>
    </g>
</svg>